<svg width="38" height="38" viewBox="0 0 38 38" fill="none" xmlns="http://www.w3.org/2000/svg">
<path fill-rule="evenodd" clip-rule="evenodd" d="M38 6.00232C38 14.5266 29.4934 21.4369 19 21.4369C8.50659 21.4369 0 14.5266 0 6.00232C0 2.68734 3.30812 0 7.38889 0C11.4697 0 14.7778 2.68734 14.7778 6.00232V17.5098C17.5159 18.1718 20.4841 18.1718 23.2222 17.5098V6.00232C23.2222 2.68734 26.5303 0 30.6111 0C34.6919 0 38 2.68734 38 6.00232ZM7.38889 3.4299C9.13779 3.4299 10.5556 4.58162 10.5556 6.00232V15.8552C6.7271 13.6859 4.22222 10.0817 4.22222 6.00232C4.22222 4.58162 5.63999 3.4299 7.38889 3.4299ZM27.4444 6.00232V15.8552C31.2729 13.6859 33.7778 10.0817 33.7778 6.00232C33.7778 4.58162 32.36 3.4299 30.6111 3.4299C28.8622 3.4299 27.4444 4.58162 27.4444 6.00232Z" fill="white"/>
<path d="M27.4444 31.7266V23.5808C22.0624 25.2885 15.9332 25.2872 10.5556 23.5808V31.7266C10.5556 33.1473 9.13779 34.299 7.38889 34.299C5.63999 34.299 4.22222 33.1473 4.22222 31.7266V20.5549C2.62018 19.48 1.19863 18.2341 0 16.8514V31.7266C0 35.0416 3.30812 37.7289 7.38889 37.7289C11.4697 37.7289 14.7778 35.0416 14.7778 31.7266V28.0345C17.57 28.3847 20.43 28.3847 23.2222 28.0345V31.7266C23.2222 35.0416 26.5303 37.7289 30.6111 37.7289C34.6919 37.7289 38 35.0416 38 31.7266V16.8514C36.8014 18.2341 35.3798 19.48 33.7778 20.5549V31.7266C33.7778 33.1473 32.36 34.299 30.6111 34.299C28.8622 34.299 27.4444 33.1473 27.4444 31.7266Z" fill="white"/>
</svg>
